<svg id="Capa_1" data-name="Capa 1" xmlns="http://www.w3.org/2000/svg" viewBox="0 0 171.29 48"><defs><style>.cls-1{fill:#fff;}.cls-2{fill:#1fa393;}</style></defs><path class="cls-1" d="M1.47,43.11v0a3.87,3.87,0,0,1,4-3.91,3.69,3.69,0,0,1,3.2,1.57L7.06,42a2,2,0,0,0-1.64-.89,1.87,1.87,0,0,0-1.8,2v0a1.86,1.86,0,0,0,1.8,2,2.06,2.06,0,0,0,1.7-.92L8.69,45.3A3.8,3.8,0,0,1,5.35,47,3.82,3.82,0,0,1,1.47,43.11Z"/><path class="cls-1" d="M8.79,43.11v0a3.94,3.94,0,0,1,4.06-3.91,3.91,3.91,0,0,1,4,3.89v0A3.94,3.94,0,0,1,12.83,47,3.9,3.9,0,0,1,8.79,43.11Zm6,0v0a2,2,0,0,0-1.94-2,1.92,1.92,0,0,0-1.9,2v0a2,2,0,0,0,1.92,2A1.92,1.92,0,0,0,14.77,43.11Z"/><path class="cls-1" d="M17.67,39.32h2.9c2.69,0,4.25,1.55,4.25,3.72v0c0,2.18-1.58,3.79-4.29,3.79H17.67ZM20.6,45a1.85,1.85,0,0,0,2.08-1.9v0a1.86,1.86,0,0,0-2.08-1.91h-.85V45Z"/><path class="cls-1" d="M25.58,39.32h6.06v1.77h-4v1.15h3.62v1.64H27.64v1.2h4.05v1.77H25.58Z"/><path class="cls-2" d="M32.12,43.11v0a3.91,3.91,0,0,1,4.06-3.91,4.41,4.41,0,0,1,3.06,1.1L38,41.74A2.68,2.68,0,0,0,36.19,41a2,2,0,0,0-1.93,2.07v0a2,2,0,0,0,2.05,2.09,2.08,2.08,0,0,0,1.2-.32V44H36V42.45h3.46v3.39A5,5,0,0,1,36.22,47,3.87,3.87,0,0,1,32.12,43.11Z"/><path class="cls-2" d="M40.33,39.32H43.9a3.28,3.28,0,0,1,2.45.82A2.34,2.34,0,0,1,47,41.89v0a2.4,2.4,0,0,1-1.55,2.32l1.79,2.62H44.85l-1.51-2.28h-.92v2.28H40.33Zm3.47,3.62c.71,0,1.12-.35,1.12-.9v0c0-.59-.43-.89-1.13-.89H42.42v1.81Z"/><path class="cls-2" d="M47.49,43.11v0a4.06,4.06,0,0,1,8.12,0v0A4,4,0,0,1,51.54,47,3.91,3.91,0,0,1,47.49,43.11Zm6,0v0a2,2,0,0,0-1.94-2,1.93,1.93,0,0,0-1.91,2v0a2,2,0,0,0,1.93,2A1.93,1.93,0,0,0,53.48,43.11Z"/><path class="cls-2" d="M56.11,43.11v0a4,4,0,0,1,4.07-3.91,3.91,3.91,0,0,1,4.05,3.89v0a4.06,4.06,0,0,1-8.12,0Zm6,0v0a2,2,0,0,0-1.94-2,1.92,1.92,0,0,0-1.9,2v0a2,2,0,0,0,1.92,2A1.93,1.93,0,0,0,62.1,43.11Z"/><path class="cls-2" d="M63.91,39.32h2.33L68,44.09l1.71-4.77H72L68.9,46.91H67Z"/><path class="cls-2" d="M72.37,39.32h6v1.77h-4v1.15h3.62v1.64H74.43v1.2h4v1.77H72.37Z"/><path class="cls-1" d="M115.23,28.9c1.16-.13,2.25-.26,3.34-.37.43,0,.87,0,1.31-.06.26,0,.37.07.37.35,0,1.43,0,2.87,0,4.3,0,.37-.22.33-.46.36L115.3,34a.57.57,0,0,0-.56.57,24.22,24.22,0,0,1-2.34,7.57A10.27,10.27,0,0,1,107.72,47a9.32,9.32,0,0,1-8.83-.42,4.66,4.66,0,0,1-2.16-5.71,10.39,10.39,0,0,1,2.87-4.3A27.92,27.92,0,0,1,108.4,31c.48-.21,1-.37,1.47-.59a.6.6,0,0,0,.3-.39,32,32,0,0,0-.73-8.73c0-.17-.09-.33-.17-.58a3.76,3.76,0,0,0-.4.38l-3.78,5c-1.11,1.48-2.2,3-3.35,4.46a8.11,8.11,0,0,1-2.49,2.13,4.66,4.66,0,0,1-6.91-3.17A14.4,14.4,0,0,1,92.27,24,46.88,46.88,0,0,1,95,14.27l.13-.25L99.7,15.8c-1.37,4-2.76,8-2.69,12.25l.16.08a6.06,6.06,0,0,0,.67-.67c1.32-1.77,2.62-3.56,3.94-5.34,1-1.35,2-2.71,3.06-4a8.64,8.64,0,0,1,2.87-2.36,3.87,3.87,0,0,1,5.45,1.56,13.45,13.45,0,0,1,1.54,4.6,34.78,34.78,0,0,1,.53,6.52Zm-5.87,7.29-.09-.1c-.48.24-1,.48-1.44.74a26.82,26.82,0,0,0-3.4,2.17c-.82.62-3.76,2.39-2.47,3.71a1.27,1.27,0,0,0,.44.28c1.63.68,3.14-.15,4.26-1.32A12.34,12.34,0,0,0,109.36,36.19Z"/><path class="cls-1" d="M8.79,33.7A10.75,10.75,0,0,1,3.4,32.41,5.88,5.88,0,0,1,.46,28.14a6.1,6.1,0,0,1,1.75-5.06,13.43,13.43,0,0,1,6.22-3.35,24.92,24.92,0,0,1,6.74-.92h1.19a2.81,2.81,0,0,0-1.28-2.5,6.43,6.43,0,0,0-3.92-1.15c-.36,0-.74,0-1.16.06A7,7,0,0,0,5.29,17.4a.87.87,0,0,1-.64.35A1.12,1.12,0,0,1,4,17.5c-.87-.65-1.7-1.23-2.52-1.77a1,1,0,0,1-.5-.66,1,1,0,0,1,.39-.75A12.6,12.6,0,0,1,9.72,10.9c.57,0,1.09-.05,1.6-.05a14.16,14.16,0,0,1,6.6,1.43,7,7,0,0,1,4.13,6.63v.19c0,4.26,0,8.66,0,13a1.3,1.3,0,0,1-.28.94,1.07,1.07,0,0,1-.8.26h-.15c-.55,0-1.09,0-1.61,0s-1.08,0-1.6,0h-.16A1.1,1.1,0,0,1,16.6,33a1.29,1.29,0,0,1-.21-1,5,5,0,0,0,0-.88l-.52.43A11.77,11.77,0,0,1,8.79,33.7ZM16.17,22a18.2,18.2,0,0,0-6.74,1.21,5.62,5.62,0,0,0-2.73,2,2.74,2.74,0,0,0-.46,2.34,2.7,2.7,0,0,0,1.57,1.71,6.39,6.39,0,0,0,2.57.53,8.65,8.65,0,0,0,2.14-.29c2.84-.75,3.89-2.13,3.88-5.1v-.59h0v-.25c0-.43,0-.87,0-1.31,0-.18,0-.22,0-.22a.39.39,0,0,0-.2,0Z"/><path class="cls-1" d="M57.44,33.7a10.75,10.75,0,0,1-5.39-1.29,5.88,5.88,0,0,1-2.94-4.27,6.1,6.1,0,0,1,1.75-5.06,13.43,13.43,0,0,1,6.22-3.35,25,25,0,0,1,6.74-.92H65a2.81,2.81,0,0,0-1.28-2.5,6.43,6.43,0,0,0-3.92-1.15c-.36,0-.74,0-1.16.06A6.94,6.94,0,0,0,54,17.4a.91.91,0,0,1-.65.35,1.06,1.06,0,0,1-.61-.25c-.88-.65-1.71-1.23-2.52-1.77a.92.92,0,0,1-.5-.66,1,1,0,0,1,.38-.75,12.63,12.63,0,0,1,8.33-3.42c.56,0,1.08-.05,1.59-.05a14.16,14.16,0,0,1,6.6,1.43,7,7,0,0,1,4.13,6.63v.19c0,4.26,0,8.66,0,13a1.34,1.34,0,0,1-.27.94,1.09,1.09,0,0,1-.81.26H69.5c-.56,0-1.1,0-1.62,0s-1.08,0-1.59,0h-.17a1.1,1.1,0,0,1-.87-.31,1.24,1.24,0,0,1-.2-1,6.34,6.34,0,0,0,0-.88l-.51.43A11.8,11.8,0,0,1,57.44,33.7ZM64.82,22a18.2,18.2,0,0,0-6.74,1.21,5.67,5.67,0,0,0-2.73,2,2.74,2.74,0,0,0-.46,2.34,2.7,2.7,0,0,0,1.57,1.71,6.39,6.39,0,0,0,2.57.53,8.79,8.79,0,0,0,2.15-.29c2.83-.75,3.88-2.13,3.87-5.1v-.59h0v-.25c0-.43,0-.87,0-1.31,0-.18,0-.22,0-.22a.39.39,0,0,0-.2,0Z"/><path class="cls-1" d="M140.45,33.05c-1.74,0-3.4,0-5.06,0-.18,0-.41-.3-.52-.51s0-.4,0-.61c0-7.3,0-11.45,0-18.76,0-1.15,0-1.15,1.13-1.16,1.29,0,2.58,0,3.86,0,.55,0,.71.2.71.71,0,7.63,0,12.1,0,19.73A5.36,5.36,0,0,1,140.45,33.05Z"/><path class="cls-1" d="M138.14,8.6a2.8,2.8,0,0,1-2.82-2.76,2.85,2.85,0,0,1,2.8-2.9A2.82,2.82,0,0,1,141,5.86,2.78,2.78,0,0,1,138.14,8.6Z"/><path class="cls-1" d="M91,39.82c-6.29,0-9.73-3.27-11.7-7.61a11.12,11.12,0,0,1-6.9.67L73.82,28h0a6.36,6.36,0,0,0,4-.64,47.83,47.83,0,0,1-.84-4.95C75.82,13.56,78.07,5,82.37,1.58a6.1,6.1,0,0,1,6-1.13c6.77,2.48,3.81,13.37,3.46,14.61l0,0c-2.32,7.3-5.28,11.7-8.19,14.32,1.86,4.76,4.6,5.33,7.33,5.33h.14l0,5.06ZM86.37,5.15a1.44,1.44,0,0,0-.85.4c-2.12,1.67-4.63,7.83-3.6,16.26.07.61.15,1.2.24,1.76a32.44,32.44,0,0,0,4.82-10,22.77,22.77,0,0,0,.73-4.57c0-.79,0-3.43-1.08-3.85A.74.74,0,0,0,86.37,5.15Z"/><path class="cls-1" d="M132,28.6c-.53.06-1,.1-1.56.11-2.72,0-4-1.19-4-3.91,0-3.77,0-7.54,0-11.31,0-.71.26-.89.92-.88,1.8,0,1.92,0,3.72,0,.6,0,.83-.19.8-.81,0-.86,0-1.74,0-2.6,0-.62-.23-.8-.82-.79-1.83,0-2,0-3.81,0-.61,0-.82-.19-.8-.8,0-1.65,0-3.3,0-4.95,0-.59-.18-.83-.8-.81-1.36,0-2.73,0-4.09,0-.67,0-.84.26-.82.88,0,1.24,0,2.49,0,3.74,0,1.94,0,1.92-1.9,1.94s-1.65-.28-1.66,1.67c0,2.5,0,2.54,2.48,2.48.91,0,1.1.29,1.09,1.14,0,3.72,0,7.43,0,11.14s1.94,6.36,5.29,7.46a12.84,12.84,0,0,0,5.93.44Z"/><path class="cls-1" d="M36.05,24.67v-.12a20.48,20.48,0,0,0-1.84-7.62c2-2,4.32-3.23,5.85-2.87,2.06.49,2.69,4.24,2.87,5.83a73.62,73.62,0,0,1,.27,12.69l4.74.59a79.93,79.93,0,0,0-.27-13.81c-.8-7.12-4-9.34-6.51-9.94a9.55,9.55,0,0,0-7.32,1.68A17,17,0,0,0,31.45,13a12.55,12.55,0,0,0-5.86-3.43l-.95,4.68h0A7.73,7.73,0,0,1,27.73,16c.21.2.41.4.6.61a2.43,2.43,0,0,0-.14.2c-3.6,5.52-4.84,11.05-3.26,14.45a5.39,5.39,0,0,0,4.38,3.15,4.92,4.92,0,0,0,4-1.25C36,30.76,36.06,25.67,36.05,24.67Zm-5.94,5c-.06.05-.08.07-.24.05a.64.64,0,0,1-.62-.43c-.57-1.23-.15-4.12,1.6-7.52a18.55,18.55,0,0,1,.43,3C31.29,26.59,30.81,29,30.11,29.64Z"/><rect class="cls-1" x="154.51" y="5.46" width="5.51" height="33.13" transform="translate(30.04 117.05) rotate(-44.73)"/><rect class="cls-1" x="140.7" y="19.27" width="33.13" height="5.51" transform="translate(30.95 118.26) rotate(-45.28)"/><polygon class="cls-2" points="157.24 18.05 147.54 8.26 143.63 12.13 150.64 19.21 143.39 19.21 143.39 24.72 150.64 24.72 143.63 31.8 147.54 35.67 157.24 25.88 161.12 21.97 157.24 18.05"/></svg>